<svg id="Layer_1" height="512" viewBox="0 0 128 128" width="512" xmlns="http://www.w3.org/2000/svg" data-name="Layer 1"><path d="m121.5 4.75h-115a1.751 1.751 0 0 0 -1.75 1.75v115a1.751 1.751 0 0 0 1.75 1.75h115a1.751 1.751 0 0 0 1.75-1.75v-115a1.751 1.751 0 0 0 -1.75-1.75zm-1.75 3.5v19.333h-111.5v-19.333zm-111.5 111.5v-88.667h111.5v88.667z"/><path d="m112.5 49.5h-97a1.751 1.751 0 0 0 -1.75 1.75v57.5a1.751 1.751 0 0 0 1.75 1.75h97a1.751 1.751 0 0 0 1.75-1.75v-57.5a1.751 1.751 0 0 0 -1.75-1.75zm-73.834 41.864h-10.116c1.55-6.537 4.913-10.574 8.12-10.574 1.65 0 3.315 1.036 4.759 2.939a27.277 27.277 0 0 0 -2.763 7.635zm6.3-6.775c1.582-2.45 3.489-3.8 5.37-3.8 1.642 0 3.306 1.036 4.757 2.94a27.186 27.186 0 0 0 -2.771 7.634h-10.085a21.97 21.97 0 0 1 2.733-6.774zm13.67 0c1.582-2.45 3.485-3.8 5.36-3.8 1.643 0 3.307 1.036 4.758 2.941a27.282 27.282 0 0 0 -2.754 7.634h-10.1a21.9 21.9 0 0 1 2.74-6.775zm13.66 0c1.582-2.45 3.486-3.8 5.36-3.8 1.648 0 3.315 1.036 4.767 2.94a27.186 27.186 0 0 0 -2.771 7.634h-10.085a21.97 21.97 0 0 1 2.733-6.774zm13.673 0c1.572-2.448 3.474-3.8 5.357-3.8 3.207 0 6.575 4.037 8.12 10.574h-16.218a21.878 21.878 0 0 1 2.745-6.777zm5.357-7.3a9.208 9.208 0 0 0 -6.826 3.478 9.231 9.231 0 0 0 -6.84-3.477 9.221 9.221 0 0 0 -6.83 3.48 9.221 9.221 0 0 0 -6.83-3.48 9.218 9.218 0 0 0 -6.83 3.48 9.221 9.221 0 0 0 -6.83-3.48 9.231 9.231 0 0 0 -6.84 3.477 9.209 9.209 0 0 0 -6.83-3.477c-5.424 0-9.925 5.776-11.685 14.074h-7.735v-22.728h93.5v22.728h-7.735c-1.76-8.298-6.261-14.074-11.685-14.074zm19.424-24.289v12.136h-93.5v-12.136zm-93.5 41.864h7.166a39.6 39.6 0 0 0 -.236 4.306 38.027 38.027 0 0 0 .808 7.83h-7.738zm10.43 4.306a36.422 36.422 0 0 1 .257-4.306h10.163a39.054 39.054 0 0 0 -.246 4.306 38.353 38.353 0 0 0 .8 7.83h-10.084a34.123 34.123 0 0 1 -.89-7.83zm14.553 7.83a34.527 34.527 0 0 1 -.883-7.83 35.645 35.645 0 0 1 .261-4.306h10.145a39.04 39.04 0 0 0 -.246 4.306 38.042 38.042 0 0 0 .808 7.83zm13.667 0a34.191 34.191 0 0 1 -.889-7.83 35.633 35.633 0 0 1 .261-4.306h10.154a39.054 39.054 0 0 0 -.246 4.306 38.353 38.353 0 0 0 .8 7.83zm13.664 0a34.527 34.527 0 0 1 -.883-7.83 35.645 35.645 0 0 1 .261-4.306h10.144a39.04 39.04 0 0 0 -.246 4.306 38.042 38.042 0 0 0 .808 7.83h-10.085zm17.557 0h-3.892a34.191 34.191 0 0 1 -.889-7.83 35.633 35.633 0 0 1 .261-4.306h17.462a36.422 36.422 0 0 1 .257 4.306 34.178 34.178 0 0 1 -.889 7.83zm15.892 0a38.027 38.027 0 0 0 .808-7.83 39.6 39.6 0 0 0 -.236-4.306h7.166v12.136z"/><path d="m72.485 19.667h28.183a1.75 1.75 0 0 0 0-3.5h-28.183a1.75 1.75 0 0 0 0 3.5z"/><path d="m26.436 22.667a4.75 4.75 0 1 0 -4.75-4.75 4.756 4.756 0 0 0 4.75 4.75zm0-6a1.25 1.25 0 1 1 -1.25 1.25 1.251 1.251 0 0 1 1.25-1.25z"/><path d="m37.923 22.667a4.75 4.75 0 1 0 -4.75-4.75 4.756 4.756 0 0 0 4.75 4.75zm0-6a1.25 1.25 0 1 1 -1.25 1.25 1.25 1.25 0 0 1 1.25-1.25z"/><path d="m49.41 22.667a4.75 4.75 0 1 0 -4.75-4.75 4.756 4.756 0 0 0 4.75 4.75zm0-6a1.25 1.25 0 1 1 -1.25 1.25 1.25 1.25 0 0 1 1.25-1.25z"/></svg>