<?xml version="1.0" encoding="iso-8859-1"?>
<!-- Generator: Adobe Illustrator 19.0.0, SVG Export Plug-In . SVG Version: 6.00 Build 0)  -->
<svg version="1.1" id="Capa_1" xmlns="http://www.w3.org/2000/svg" xmlns:xlink="http://www.w3.org/1999/xlink" x="0px" y="0px"
	 viewBox="0 0 512 512" style="enable-background:new 0 0 512 512;" xml:space="preserve">
<g>
	<g>
		<path d="M511.997,283.988c-0.025-2.784-1.653-5.413-4.151-6.654l-188.222-94.111V35.569c0-4.151-3.365-7.515-7.515-7.515
			c-4.15,0-7.515,3.364-7.515,7.515v144.783h-97.19V35.569c0-4.151-3.365-7.515-7.515-7.515c-4.15,0-7.515,3.364-7.515,7.515
			v147.653L4.154,277.334C1.639,278.584,0,281.248,0,284.055v112.219c0,4.151,3.365,7.515,7.515,7.515h405.793
			c4.15,0,7.515-3.364,7.515-7.515s-3.365-7.515-7.515-7.515H15.029v-97.19h481.941v97.19h-48.595c-4.15,0-7.515,3.364-7.515,7.515
			s3.365,7.515,7.515,7.515h56.11c4.15,0,7.515-3.364,7.515-7.515V284.055C512,284.032,511.997,284.01,511.997,283.988z
			 M39.348,276.54l162.317-81.159h108.671l162.317,81.159H39.348z"/>
	</g>
</g>
<g>
	<g>
		<path d="M256,308.603c-4.15,0-7.515,3.364-7.515,7.515v48.094c0,4.151,3.365,7.515,7.515,7.515s7.515-3.364,7.515-7.515v-48.094
			C263.515,311.966,260.15,308.603,256,308.603z"/>
	</g>
</g>
<g>
	<g>
		<path d="M288.063,308.603c-4.15,0-7.515,3.364-7.515,7.515v48.094c0,4.151,3.365,7.515,7.515,7.515s7.515-3.364,7.515-7.515
			v-48.094C295.577,311.966,292.213,308.603,288.063,308.603z"/>
	</g>
</g>
<g>
	<g>
		<path d="M223.937,308.603c-4.15,0-7.515,3.364-7.515,7.515v48.094c0,4.151,3.365,7.515,7.515,7.515s7.515-3.364,7.515-7.515
			v-48.094C231.452,311.966,228.087,308.603,223.937,308.603z"/>
	</g>
</g>
<g>
	<g>
		<path d="M191.875,316.618H127.75c-4.15,0-7.515,3.364-7.515,7.515v32.063c0,4.151,3.365,7.515,7.515,7.515h64.125
			c4.15,0,7.515-3.364,7.515-7.515v-32.063C199.389,319.982,196.025,316.618,191.875,316.618z M184.36,348.681h-49.096v-17.033
			h49.096V348.681z"/>
	</g>
</g>
<g>
	<g>
		<path d="M384.25,316.618h-64.125c-4.15,0-7.515,3.364-7.515,7.515v32.063c0,4.151,3.365,7.515,7.515,7.515h64.125
			c4.15,0,7.515-3.364,7.515-7.515v-32.063C391.765,319.982,388.401,316.618,384.25,316.618z M376.736,348.681H327.64v-17.033
			h49.096V348.681z"/>
	</g>
</g>
<g>
	<g>
		<path d="M432.344,316.618c-12.983,0-23.546,10.563-23.546,23.546c0,12.983,10.563,23.546,23.546,23.546
			s23.546-10.563,23.546-23.546C455.89,327.181,445.328,316.618,432.344,316.618z M432.344,348.681c-4.696,0-8.517-3.82-8.517-8.517
			s3.82-8.517,8.517-8.517s8.517,3.82,8.517,8.517S437.041,348.681,432.344,348.681z"/>
	</g>
</g>
<g>
	<g>
		<path d="M87.671,316.618c-12.983,0-23.546,10.563-23.546,23.546c0,12.983,10.563,23.546,23.546,23.546
			c12.983,0,23.546-10.563,23.546-23.546C111.217,327.181,100.655,316.618,87.671,316.618z M87.671,348.681
			c-4.696,0-8.517-3.82-8.517-8.517s3.82-8.517,8.517-8.517s8.517,3.82,8.517,8.517S92.367,348.681,87.671,348.681z"/>
	</g>
</g>
<g>
	<g>
		<path d="M262.72,462.274c4.124-4.01,9.771-9.502,9.83-17.908c0.047-6.752-3.628-13.734-11.237-21.343
			c-2.934-2.934-7.693-2.934-10.627-0.001c-2.935,2.936-2.935,7.693,0,10.628c6.193,6.193,6.843,9.483,6.835,10.61
			c-0.015,2.119-2.572,4.606-5.278,7.238c-3.898,3.789-8.748,8.507-8.798,15.579c-0.035,4.962,2.334,9.759,7.241,14.668
			c2.896,2.895,7.732,2.895,10.627,0c2.935-2.936,2.935-7.693,0-10.628c-2.665-2.665-2.836-3.903-2.841-3.91
			C258.644,466.238,261.195,463.756,262.72,462.274z"/>
	</g>
</g>
<g>
	<g>
		<path d="M219.667,462.273c4.124-4.01,9.771-9.502,9.83-17.908c0.047-6.752-3.628-13.734-11.237-21.343
			c-2.935-2.933-7.693-2.933-10.627,0c-2.935,2.936-2.935,7.693,0,10.628c6.193,6.193,6.843,9.483,6.835,10.61
			c-0.015,2.119-2.572,4.606-5.278,7.238c-3.898,3.789-8.748,8.507-8.798,15.579c-0.035,4.962,2.334,9.759,7.241,14.668
			c1.467,1.467,3.391,2.2,5.313,2.2c6.572,0,9.942-8.199,5.313-12.829c-2.665-2.665-2.836-3.903-2.842-3.91
			C215.591,466.237,218.142,463.755,219.667,462.273z"/>
	</g>
</g>
<g>
	<g>
		<path d="M307.839,462.273c4.124-4.01,9.771-9.502,9.83-17.908c0.047-6.752-3.628-13.734-11.237-21.343
			c-2.935-2.933-7.693-2.933-10.627,0c-2.935,2.936-2.935,7.693,0,10.628c6.193,6.193,6.843,9.483,6.835,10.61
			c-0.015,2.119-2.572,4.606-5.278,7.238c-3.898,3.789-8.748,8.507-8.798,15.579c-0.035,4.962,2.334,9.759,7.241,14.668
			c3.056,3.055,8.217,2.851,11.027-0.432c2.519-2.942,2.337-7.461-0.4-10.197c-2.665-2.665-2.836-3.903-2.842-3.91
			C303.763,466.237,306.314,463.755,307.839,462.273z"/>
	</g>
</g>
<g>
</g>
<g>
</g>
<g>
</g>
<g>
</g>
<g>
</g>
<g>
</g>
<g>
</g>
<g>
</g>
<g>
</g>
<g>
</g>
<g>
</g>
<g>
</g>
<g>
</g>
<g>
</g>
<g>
</g>
</svg>
