<svg height="512pt" viewBox="0 -85 512 512" width="512pt" xmlns="http://www.w3.org/2000/svg"><path d="m469.332031 341.332031h-426.664062c-23.527344 0-42.667969-19.140625-42.667969-42.664062v-256c0-23.527344 19.140625-42.667969 42.667969-42.667969h426.664062c23.527344 0 42.667969 19.140625 42.667969 42.667969v256c0 23.523437-19.140625 42.664062-42.667969 42.664062zm-426.664062-324.265625c-14.117188 0-25.601563 11.484375-25.601563 25.601563v256c0 14.113281 11.484375 25.597656 25.601563 25.597656h426.664062c14.117188 0 25.601563-11.484375 25.601563-25.597656v-256c0-14.117188-11.484375-25.601563-25.601563-25.601563zm0 0"/><path d="m136.535156 238.933594c-18.828125 0-34.136718-15.308594-34.136718-34.132813s15.308593-34.132812 34.136718-34.132812c18.824219 0 34.132813 15.308593 34.132813 34.132812s-15.308594 34.132813-34.132813 34.132813zm0-51.199219c-9.414062 0-17.070312 7.652344-17.070312 17.066406 0 9.410157 7.65625 17.066407 17.070312 17.066407 9.410156 0 17.066406-7.65625 17.066406-17.066407 0-9.414062-7.65625-17.066406-17.066406-17.066406zm0 0"/><path d="m460.800781 136.535156h-187.734375c-4.710937 0-8.53125-3.816406-8.53125-8.535156s3.820313-8.535156 8.53125-8.535156h187.734375c4.710938 0 8.53125 3.816406 8.53125 8.535156s-3.820312 8.535156-8.53125 8.535156zm0 0"/><path d="m460.800781 187.734375h-187.734375c-4.710937 0-8.53125-3.816406-8.53125-8.535156s3.820313-8.53125 8.53125-8.53125h187.734375c4.710938 0 8.53125 3.8125 8.53125 8.53125s-3.820312 8.535156-8.53125 8.535156zm0 0"/><path d="m460.800781 290.132812h-187.734375c-4.710937 0-8.53125-3.8125-8.53125-8.53125s3.820313-8.535156 8.53125-8.535156h187.734375c4.710938 0 8.53125 3.816406 8.53125 8.535156s-3.820312 8.53125-8.53125 8.53125zm0 0"/><path d="m460.800781 238.933594h-187.734375c-4.710937 0-8.53125-3.816406-8.53125-8.535156s3.820313-8.53125 8.53125-8.53125h187.734375c4.710938 0 8.53125 3.8125 8.53125 8.53125s-3.820312 8.535156-8.53125 8.535156zm0 0"/><path d="m136.535156 153.601562c-13.980468 0-25.832031-10.90625-26.992187-24.832031l-5.828125-69.90625c-.53125-6.339843 1.636718-12.664062 5.957031-17.347656 4.308594-4.703125 10.433594-7.382813 16.800781-7.382813h20.121094c6.367188 0 12.492188 2.679688 16.800781 7.375 4.3125 4.683594 6.480469 11.007813 5.957031 17.347657l-5.828124 69.902343c-1.160157 13.9375-13.011719 24.84375-26.988282 24.84375zm-10.0625-102.402343c-2.203125 0-3.601562 1.167969-4.242187 1.859375-.640625.703125-1.6875 2.195312-1.5 4.386718l5.828125 69.90625c.425781 5.144532 4.8125 9.183594 9.976562 9.183594 5.160156 0 9.546875-4.039062 9.972656-9.183594l5.828126-69.90625c.179687-2.191406-.859376-3.683593-1.5-4.386718-.640626-.691406-2.039063-1.859375-4.242188-1.859375zm0 0"/><path d="m230.398438 85.332031h-34.132813c-4.710937 0-8.53125-3.8125-8.53125-8.53125v-34.132812c0-4.71875 3.820313-8.535157 8.53125-8.535157h34.132813c4.710937 0 8.535156 3.816407 8.535156 8.535157v34.132812c0 4.71875-3.824219 8.53125-8.535156 8.53125zm-25.597657-17.066406h17.066407v-17.066406h-17.066407zm0 0"/><path d="m76.800781 85.332031h-34.132812c-4.710938 0-8.535157-3.8125-8.535157-8.53125v-34.132812c0-4.71875 3.824219-8.535157 8.535157-8.535157h34.132812c4.710938 0 8.53125 3.816407 8.53125 8.535157v34.132812c0 4.71875-3.820312 8.53125-8.53125 8.53125zm-25.601562-17.066406h17.066406v-17.066406h-17.066406zm0 0"/><path d="m213.332031 307.199219h-153.597656c-14.113281 0-25.601563-11.484375-25.601563-25.597657v-153.601562c0-14.113281 11.488282-25.601562 25.601563-25.601562h56.890625c4.4375 0 8.132812 3.398437 8.507812 7.828124l1.425782 17.125c.425781 5.144532 4.8125 9.183594 9.976562 9.183594 5.160156 0 9.546875-4.039062 9.972656-9.183594l1.425782-17.125c.375-4.429687 4.070312-7.828124 8.507812-7.828124h56.890625c14.117188 0 25.601563 11.488281 25.601563 25.601562v153.601562c0 14.113282-11.484375 25.597657-25.601563 25.597657zm-153.597656-187.734375c-4.710937 0-8.535156 3.824218-8.535156 8.535156v153.601562c0 4.707032 3.824219 8.53125 8.535156 8.53125h153.597656c4.710938 0 8.535157-3.824218 8.535157-8.53125v-153.601562c0-4.710938-3.824219-8.535156-8.535157-8.535156h-49.039062l-.777344 9.304687c-1.152344 13.925781-13.003906 24.832031-26.980469 24.832031-13.980468 0-25.832031-10.90625-26.992187-24.832031l-.769531-9.304687zm0 0"/></svg>