<svg id="Capa_1" enable-background="new 0 0 512 512" height="512" viewBox="0 0 512 512" width="512" xmlns="http://www.w3.org/2000/svg"><g><path d="m436 150c0-82.71-67.29-150-150-150s-150 67.29-150 150v151h-30v181h-30v30h210v-30h-30v-30h15c24.813 0 45-20.187 45-45 0-21.258 0-84.659 0-106h-30v61h-30v-61h-30v-151c0-33.084 26.916-60 60-60s60 26.916 60 60v60.99h30c0 26.819-7.087 53.261-20.494 76.479-1.721 3.737-9.506 12.802-9.506 28.531 0 24.813 20.187 45 45 45s45-20.187 45-45c0-15.813-7.586-24.4-9.507-28.532-13.406-23.217-20.493-49.659-20.493-76.468h30zm-45 181c-8.271 0-15-6.729-15-15 0-5.949 3.073-8.755 5.485-13.53 3.544-6.136 6.72-12.463 9.515-18.939 2.795 6.476 5.971 12.802 9.514 18.938 2.607 5.131 5.486 7.564 5.486 13.531 0 8.271-6.729 15-15 15zm-105 61v15c0 8.271-6.729 15-15 15h-45v60h-90v-151h90v61zm120-211h-30v-31c0-49.626-40.374-90-90-90s-90 40.374-90 90v151h-30v-151c0-66.168 53.832-120 120-120s120 53.832 120 120z"/></g></svg>