<svg id="Layer_1" enable-background="new 0 0 512 512" height="512" viewBox="0 0 512 512" width="512" xmlns="http://www.w3.org/2000/svg"><g clip-rule="evenodd" fill-rule="evenodd"><path d="m497 0h-482c-8.284 0-15 6.716-15 15v482c0 8.284 6.716 15 15 15h482c8.284 0 15-6.716 15-15v-482c0-8.284-6.716-15-15-15zm-15 482h-452v-452h452z"/><path d="m68.66 234.473c5.857 5.858 15.355 5.858 21.213 0l11.512-11.511c14.206 10.015 31.518 15.905 50.182 15.905s35.976-5.89 50.182-15.905l11.511 11.511c5.857 5.858 15.355 5.858 21.213 0s5.858-15.355 0-21.213l-11.511-11.511c10.015-14.206 15.905-31.518 15.905-50.182s-5.89-35.976-15.905-50.182l11.511-11.511c5.858-5.858 5.858-15.355 0-21.213-5.857-5.858-15.355-5.858-21.213 0l-11.512 11.511c-14.206-10.015-31.518-15.905-50.182-15.905s-35.976 5.89-50.182 15.905l-11.511-11.512c-5.857-5.858-15.355-5.858-21.213 0s-5.858 15.355 0 21.213l11.511 11.511c-10.015 14.206-15.905 31.518-15.905 50.182s5.89 35.976 15.905 50.182l-11.511 11.512c-5.858 5.858-5.858 15.355 0 21.213zm33.256-111.453c5.892 4.821 14.594 4.484 20.091-1.014 5.498-5.497 5.835-14.199 1.014-20.091 8.411-4.855 18.155-7.648 28.545-7.648s20.134 2.794 28.545 7.648c-4.821 5.892-4.483 14.594 1.014 20.091 5.497 5.498 14.199 5.835 20.091 1.014 4.855 8.412 7.649 18.156 7.649 28.547 0 10.39-2.794 20.135-7.649 28.546-5.892-4.821-14.594-4.484-20.091 1.014-5.498 5.497-5.835 14.199-1.014 20.091-8.411 4.855-18.155 7.648-28.545 7.648s-20.134-2.794-28.545-7.648c4.821-5.892 4.483-14.594-1.014-20.091-5.497-5.498-14.2-5.835-20.091-1.014-4.855-8.412-7.649-18.156-7.649-28.546 0-10.391 2.794-20.135 7.649-28.547z"/><circle cx="151.567" cy="151.567" r="15"/><path d="m277.527 234.473c5.857 5.858 15.355 5.858 21.213 0l11.512-11.511c14.206 10.015 31.518 15.905 50.182 15.905s35.976-5.89 50.182-15.905l11.511 11.511c5.857 5.858 15.355 5.858 21.213 0s5.858-15.355 0-21.213l-11.511-11.511c10.015-14.206 15.905-31.518 15.905-50.182s-5.89-35.976-15.905-50.182l11.511-11.511c5.858-5.858 5.858-15.355 0-21.213-5.857-5.858-15.355-5.858-21.213 0l-11.512 11.511c-14.206-10.015-31.518-15.905-50.182-15.905s-35.976 5.89-50.182 15.905l-11.511-11.512c-5.857-5.858-15.355-5.858-21.213 0s-5.858 15.355 0 21.213l11.511 11.511c-10.015 14.206-15.905 31.518-15.905 50.182s5.89 35.976 15.905 50.182l-11.511 11.511c-5.858 5.859-5.858 15.356 0 21.214zm33.256-111.453c5.892 4.821 14.594 4.484 20.091-1.014 5.498-5.497 5.835-14.199 1.014-20.091 8.411-4.855 18.155-7.648 28.545-7.648s20.134 2.794 28.545 7.648c-4.821 5.892-4.483 14.594 1.014 20.091 5.497 5.498 14.199 5.835 20.091 1.014 4.855 8.412 7.649 18.156 7.649 28.547 0 10.39-2.794 20.135-7.649 28.546-5.892-4.821-14.594-4.484-20.091 1.014-5.498 5.497-5.835 14.199-1.014 20.091-8.411 4.855-18.155 7.648-28.545 7.648s-20.134-2.794-28.545-7.648c4.821-5.892 4.483-14.594-1.014-20.091-5.497-5.498-14.2-5.835-20.091-1.014-4.855-8.412-7.649-18.156-7.649-28.546 0-10.391 2.794-20.135 7.649-28.547z"/><circle cx="360.434" cy="151.567" r="15"/><path d="m68.66 443.34c5.857 5.858 15.355 5.858 21.213 0l11.512-11.511c14.206 10.015 31.518 15.905 50.182 15.905s35.976-5.89 50.182-15.905l11.511 11.511c5.857 5.858 15.355 5.858 21.213 0s5.858-15.355 0-21.213l-11.511-11.511c10.015-14.206 15.905-31.518 15.905-50.182s-5.89-35.976-15.905-50.182l11.511-11.511c5.858-5.858 5.858-15.355 0-21.213-5.857-5.858-15.355-5.858-21.213 0l-11.512 11.511c-14.206-10.015-31.518-15.905-50.182-15.905s-35.976 5.89-50.182 15.905l-11.512-11.511c-5.857-5.858-15.355-5.858-21.213 0s-5.858 15.355 0 21.213l11.511 11.511c-10.015 14.206-15.905 31.518-15.905 50.182s5.89 35.976 15.905 50.182l-11.51 11.51c-5.858 5.858-5.858 15.356 0 21.214zm33.256-111.453c5.892 4.821 14.594 4.484 20.091-1.014 5.498-5.497 5.835-14.199 1.014-20.091 8.411-4.855 18.155-7.648 28.545-7.648s20.134 2.794 28.545 7.648c-4.821 5.892-4.483 14.594 1.014 20.091 5.497 5.498 14.199 5.835 20.091 1.014 4.855 8.412 7.649 18.156 7.649 28.547 0 10.39-2.794 20.135-7.649 28.546-5.892-4.821-14.594-4.484-20.091 1.014-5.498 5.497-5.835 14.199-1.014 20.091-8.411 4.855-18.155 7.648-28.545 7.648s-20.134-2.794-28.545-7.648c4.821-5.892 4.483-14.594-1.014-20.091-5.497-5.498-14.2-5.835-20.091-1.014-4.855-8.412-7.649-18.156-7.649-28.546 0-10.391 2.794-20.136 7.649-28.547z"/><circle cx="151.567" cy="360.433" r="15"/><path d="m277.527 443.34c5.857 5.858 15.355 5.858 21.213 0l11.512-11.511c14.206 10.015 31.518 15.905 50.182 15.905s35.976-5.89 50.182-15.905l11.511 11.511c5.857 5.858 15.355 5.858 21.213 0s5.858-15.355 0-21.213l-11.511-11.511c10.015-14.206 15.905-31.518 15.905-50.182s-5.89-35.976-15.905-50.182l11.511-11.511c5.858-5.858 5.858-15.355 0-21.213-5.857-5.858-15.355-5.858-21.213 0l-11.512 11.511c-14.206-10.015-31.518-15.905-50.182-15.905s-35.976 5.89-50.182 15.905l-11.512-11.511c-5.857-5.858-15.355-5.858-21.213 0s-5.858 15.355 0 21.213l11.511 11.511c-10.015 14.206-15.905 31.518-15.905 50.182s5.89 35.976 15.905 50.182l-11.511 11.511c-5.857 5.857-5.857 15.355.001 21.213zm33.256-111.453c5.892 4.821 14.594 4.484 20.091-1.014 5.498-5.497 5.835-14.199 1.014-20.091 8.411-4.855 18.155-7.648 28.545-7.648s20.134 2.794 28.545 7.648c-4.821 5.892-4.483 14.594 1.014 20.091 5.497 5.498 14.199 5.835 20.091 1.014 4.855 8.412 7.649 18.156 7.649 28.547 0 10.39-2.794 20.135-7.649 28.546-5.892-4.821-14.594-4.484-20.091 1.014-5.498 5.497-5.835 14.199-1.014 20.091-8.411 4.855-18.155 7.648-28.545 7.648s-20.134-2.794-28.545-7.648c4.821-5.892 4.483-14.594-1.014-20.091-5.497-5.498-14.2-5.835-20.091-1.014-4.855-8.412-7.649-18.156-7.649-28.546 0-10.391 2.794-20.136 7.649-28.547z"/><circle cx="360.434" cy="360.433" r="15"/></g></svg>