<svg id="Capa_1" enable-background="new 0 0 512.002 512.002" height="512" viewBox="0 0 512.002 512.002" width="512" xmlns="http://www.w3.org/2000/svg"><g><path d="m512.001 241.001v30c0 8.28-6.72 15-15 15h-211v150c0 8.28-6.72 15-15 15h-30c-8.28 0-15-6.72-15-15v-150h-211c-8.28 0-15-6.72-15-15v-30c0-8.28 6.72-15 15-15h211v-150c0-8.28 6.72-15 15-15h30c8.28 0 15 6.72 15 15v150h211c8.28 0 15 6.72 15 15z" fill="#ff6c6c"/><path d="m512.001 241.001v30c0 8.28-6.72 15-15 15h-211v150c0 8.28-6.72 15-15 15h-15v-390h15c8.28 0 15 6.72 15 15v150h211c8.28 0 15 6.72 15 15z" fill="#e63950"/><path d="m211.001 61.001h-196.313l-14.687 15.031v134.969c0 8.28 6.72 15 15 15h211v-150c0-8.28-6.72-15-15-15z" fill="#6aa9ff"/><path d="m301.001 61.001h196.042l14.958 14.999v135.001c0 8.28-6.72 15-15 15-7.612 0-199.331 0-211 0v-150c0-8.28 6.72-15 15-15z" fill="#2682ff"/><path d="m226.001 177.321v48.68h-85.23l-140.77-105.05v-44.919l14.687-15.031h55.443z" fill="#fff5f5"/><path d="m286.001 177.321v48.68h85.23l140.77-105.05v-44.951l-14.959-14.999h-55.171z" fill="#efe2dd"/><path d="m207.03 238.022-201-150c-6.639-4.955-8.005-14.354-3.05-20.993s14.354-8.005 20.993-3.05l201 150c6.639 4.955 8.005 14.354 3.05 20.993-4.938 6.616-14.333 8.021-20.993 3.05z" fill="#ff6c6c"/><path d="m304.972 238.022 201-150c6.639-4.955 8.005-14.354 3.05-20.993s-14.354-8.005-20.993-3.05l-201 150c-6.639 4.955-8.005 14.354-3.05 20.993 4.938 6.616 14.333 8.021 20.993 3.05z" fill="#e63950"/><path d="m211.001 61.001v150h-211v30h226c8.28 0 15-6.72 15-15v-165z" fill="#fff5f5"/><path d="m301.001 61.001v150h211v30h-226c-8.28 0-15-6.72-15-15v-165z" fill="#efe2dd"/><path d="m211.001 451.001h-196l-15-15.063v-134.937c0-8.28 6.72-15 15-15h211v150c0 8.28-6.72 15-15 15z" fill="#6aa9ff"/><path d="m301.001 451.001h195.594l15.406-15.063v-134.937c0-8.28-6.72-15-15-15-7.612 0-199.331 0-211 0v150c0 8.28 6.72 15 15 15z" fill="#2682ff"/><path d="m226.001 334.681v-48.68h-85.23l-140.77 105.05v44.887l15 15.063h55.13z" fill="#fff5f5"/><path d="m286.001 334.681v-48.68h85.23l140.77 105.05v44.887l-15.406 15.063h-54.724z" fill="#efe2dd"/><path d="m207.03 273.979-201 150c-6.639 4.955-8.005 14.354-3.05 20.993s14.354 8.005 20.993 3.05l201-150c6.639-4.955 8.005-14.354 3.05-20.993-4.938-6.616-14.333-8.02-20.993-3.05z" fill="#ff6c6c"/><path d="m304.972 273.979 201 150c6.639 4.955 8.005 14.354 3.05 20.993s-14.354 8.005-20.993 3.05l-201-150c-6.639-4.955-8.005-14.354-3.05-20.993 4.938-6.616 14.333-8.02 20.993-3.05z" fill="#e63950"/><path d="m211.001 451.001v-150h-211v-30h226c8.28 0 15 6.72 15 15v165z" fill="#fff5f5"/><path d="m301.001 451.001v-150h211v-30h-226c-8.28 0-15 6.72-15 15v165z" fill="#efe2dd"/></g></svg>